<?xml version="1.0" encoding="UTF-8"?>
<svg id="Layer_2" data-name="Layer 2" xmlns="http://www.w3.org/2000/svg" viewBox="0 0 472.25 686.09" width="26" height="26">
  <g id="Layer_1-2" data-name="Layer 1">
    <g>
      <path d="M368.57,685.44l-269.82.65c-53.33-6.88-98.12-50.03-98.2-105.91L0,232.79c-.07-41.71,9.67-60.55,34.17-93.51,4.78-6.43,11.12-18.7,5.26-25.25-4.55-5.09-11.63-6.22-9.91-14.66,1.03-5.04,4.21-11.43,12.35-11.43l388.36-.02c8.16,0,12.35,4.58,14.01,9.66,3.11,9.47-5.13,10.99-9.82,16.38-14.12,16.26,37.88,51.89,37.83,96.67l-.44,375.71c-.06,54.25-50.13,98.97-103.24,99.1Z"/>
      <path d="M429.64,72.22l-384.35.06c-10.07,0-17.01-6.41-16.96-15.82l.18-37.79c.05-10.65,8.91-17.13,19.58-18.67l375.78.12c10.79,0,20.54,7.83,20.79,18.06.34,13.71.67,26.1.31,39.3-.2,7.45-5.52,14.73-15.32,14.74Z"/>
    </g>
  </g>
</svg>