<?xml version="1.0" encoding="UTF-8"?>
<svg id="Layer_2" data-name="Layer 2" xmlns="http://www.w3.org/2000/svg" viewBox="0 0 854.47 637.27" width="26" height="26">
  <g id="Layer_1-2" data-name="Layer 1">
    <g>
      <path d="M577.41,636.7l-281.72.56c-38.65.08-76.05-6.58-111.56-21.38-64.25-26.78-117.44-74.63-150.82-135.76C12.54,442.08,1.76,399.95.06,356.73c-.13-3.23-.21-5.77,1.58-7.84,1.94-2.23,4.31-2.87,8.07-2.87l280.26.09,558.73.2c3.51,0,5.84,3.32,5.77,6.52-.94,43.52-11.44,86.15-31.92,124.75-35.25,66.46-94.17,117.72-165.01,143.18-25.59,9.2-52.01,15.87-80.13,15.93Z"/>
      <g>
        <path d="M472.83,84.57c43.89-17.98,88.34-29.85,134.31-36.38,7.18-1.02,11.43.72,17.4,4.19,23.9,13.91,45.97,29.59,66.57,48.47,49.23,45.11,87.92,109.85,94.98,177.08.84,8.01-1.17,15.66-7.07,20.69-5.89,5.01-12.89,6.45-20.94,6.45l-668.66-.04c-14.34-2.64-22.73-12.79-21.18-27.19,3.21-29.7,11.88-58.05,25.41-84.89,31.35-62.18,80.55-110.02,141.25-143.32,3.1-1.7,6.21-2.09,9.87-1.61,47.04,6.25,92.39,17.98,136.6,36.45-4.74,4.44-8.93,7.78-13.82,11.6-39.58,30.96-70.61,70.97-91.04,117.18l18.19-15.43c39.25-37.45,83.97-67.61,132.81-91.37l31.02,16.53c42.11,22.44,82.95,57.34,118.98,90.23-6.4-16.33-14.96-30.15-24.17-44.52-13.23-20.65-28.82-38.72-46.75-55.45l-33.79-28.69Z"/>
        <path d="M427.5,56.3c-33.36-17.34-67.83-30.87-105.06-41.17,68.57-20.22,141.39-20.13,209.47.04-36.11,10.29-70.38,22.82-104.41,41.13Z"/>
      </g>
    </g>
  </g>
</svg>