<?xml version="1.0" encoding="UTF-8"?>
<svg xmlns="http://www.w3.org/2000/svg" xmlns:xlink="http://www.w3.org/1999/xlink" viewBox="0 0 751.81 769.26">
  <defs>
    <style>
      .cls-1 {
        fill: #8fc39f;
      }

      .cls-2 {
        fill: #8fc39d;
      }

      .cls-3 {
        fill: none;
        stroke: #e2efe1;
        stroke-miterlimit: 10;
        stroke-width: 10px;
      }

      .cls-4 {
        fill: #8dc29d;
      }

      .cls-5 {
        fill: url(#linear-gradient);
      }

      .cls-6 {
        fill: #8fc5a0;
      }

      .cls-7, .cls-8 {
        fill: #63a47c;
      }

      .cls-9 {
        isolation: isolate;
      }

      .cls-10 {
        fill: #fff;
      }

      .cls-11 {
        fill: #225b47;
      }

      .cls-12 {
        fill: #61a27b;
      }

      .cls-13 {
        fill: #e2efe1;
      }

      .cls-14 {
        fill: #dcefd9;
      }

      .cls-8 {
        mix-blend-mode: multiply;
      }

      .cls-15 {
        fill: #dceddb;
      }

      .cls-16 {
        fill: #c5e5c9;
      }
    </style>
    <linearGradient id="linear-gradient" x1="400.88" y1="390.06" x2="535.77" y2="123.02" gradientUnits="userSpaceOnUse">
      <stop offset=".01" stop-color="#8dc29d"/>
      <stop offset=".22" stop-color="#91c4a0"/>
      <stop offset=".44" stop-color="#9dcaaa"/>
      <stop offset=".66" stop-color="#b1d5ba"/>
      <stop offset=".88" stop-color="#cee4d1"/>
      <stop offset="1" stop-color="#e2efe1"/>
    </linearGradient>
  </defs>
  <g class="cls-9">
    <g id="Layer_1" data-name="Layer 1">
      <g>
        <g id="_86GocS" data-name="86GocS">
          <path class="cls-11" d="M479.68,683.1c-68.46,6.64-135.72,6.6-203.37.19-15.8-1.5-29.59-4.24-44.7-7.43-55.1-11.63-100.75-36.44-127.29-87.41-21.02-40.37-28.46-91.59-31.27-137.52-4.01-65.47-3.57-151.1,10.02-214.36,18.83-87.69,65.99-132.5,153.91-149.86,57.4-11.33,128.55-12.35,187.87-9.97,55.45,2.22,118.6,8.81,166.33,36.68,40.36,23.57,62.97,60.53,75.32,105.12,7.29,26.31,11.24,52.18,13.43,79.67,4.1,51.58,4.13,102.25,1.03,154.01-1.6,26.71-4.72,51.63-10.47,77.41-12.46,55.83-38.01,101.33-90.53,126.84-19.23,9.34-38.73,15.69-59.67,19.87-13.55,2.71-25.68,5.31-40.61,6.76Z"/>
        </g>
        <ellipse class="cls-13" cx="243.05" cy="365.55" rx="106.36" ry="108.88"/>
        <ellipse class="cls-5" cx="470.24" cy="252.74" rx="114.22" ry="115.65"/>
        <ellipse class="cls-4" cx="499.53" cy="473.69" rx="120.62" ry="108.13"/>
        <ellipse class="cls-16" cx="359.26" cy="528.24" rx="93.05" ry="91.34"/>
        <circle class="cls-13" cx="176.46" cy="228.33" r="11.64"/>
        <circle class="cls-4" cx="302.2" cy="183.07" r="11.03"/>
        <circle class="cls-7" cx="131.91" cy="474.88" r="9.83"/>
        <circle class="cls-13" cx="190.05" cy="518.15" r="9.8"/>
        <circle class="cls-14" cx="469.19" cy="617.11" r="17.58"/>
        <circle class="cls-13" cx="568.96" cy="600.15" r="7.93"/>
        <circle class="cls-15" cx="615.53" cy="340.14" r="16.38"/>
        <circle class="cls-16" cx="587.9" cy="153.85" r="9.38"/>
        <g>
          <ellipse class="cls-3" cx="373.73" cy="370.17" rx="113.13" ry="124.57"/>
          <g>
            <path class="cls-10" d="M302.58,457.93c-.53.4-1.06.8-1.58,1.22-.03-.03-.05-.05-.08-.08.56-.37,1.11-.75,1.66-1.14Z"/>
            <path class="cls-10" d="M482.29,370.01c-3.43.38-6.9.6-10.42.65,3.42-.72,6.88-1.3,10.4-1.74.02.36.02.72.02,1.09Z"/>
            <path class="cls-11" d="M471.87,370.66c-41.27,8.61-74.41,36.22-87.32,71.99-8.1-2.25-16.65-3.46-25.49-3.46-19.96,0-38.45,6.16-53.6,16.67,26.52-19.8,43.75-51.85,43.75-88.02s-18.01-69.66-45.55-89.33c14.6-13.64,32.5-23.1,52.2-26.7-.04,1.07-.05,2.14-.05,3.22,0,63.87,51.14,115.65,114.22,115.65.61,0,1.23,0,1.84-.02Z"/>
            <path class="cls-1" d="M482.27,368.92c-3.52.44-6.98,1.02-10.4,1.74-.61.02-1.23.02-1.84.02-63.08,0-114.22-51.78-114.22-115.65,0-1.08.01-2.15.05-3.22,5.81-1.07,11.78-1.62,17.87-1.62,59.6,0,107.97,53.05,108.54,118.73Z"/>
            <path class="cls-2" d="M349.21,367.84c0,36.17-17.23,68.22-43.75,88.02-.95.71-1.91,1.4-2.88,2.07-.55.39-1.1.77-1.66,1.14-21.96-21.95-35.75-53.67-35.75-88.96s14.95-69.6,38.49-91.6c27.54,19.67,45.55,52.35,45.55,89.33Z"/>
            <path class="cls-6" d="M430.69,472.22c-14.97,10.21-32.36,16.52-50.99,17.62-1.98.13-3.97.19-5.97.19-27.98,0-53.48-11.69-72.73-30.88.52-.42,1.05-.82,1.58-1.22.97-.67,1.93-1.36,2.88-2.07,15.15-10.51,33.64-16.67,53.6-16.67,8.84,0,17.39,1.21,25.49,3.46,18.3,5.11,34.3,15.58,46.14,29.57Z"/>
            <path class="cls-8" d="M302.58,457.93c-.53.4-1.06.8-1.58,1.22-.03-.03-.05-.05-.08-.08.56-.37,1.11-.75,1.66-1.14Z"/>
            <path class="cls-12" d="M482.29,370.01v.1c0,43.16-20.64,80.99-51.6,102.11-11.84-13.99-27.84-24.46-46.14-29.57,12.91-35.77,46.05-63.38,87.32-71.99,3.52-.05,6.99-.27,10.42-.65Z"/>
            <path class="cls-8" d="M482.29,370.01c-3.43.38-6.9.6-10.42.65,3.42-.72,6.88-1.3,10.4-1.74.02.36.02.72.02,1.09Z"/>
          </g>
        </g>
      </g>
    </g>
  </g>
</svg>