<?xml version="1.0" encoding="UTF-8"?>
<svg id="Layer_1" xmlns="http://www.w3.org/2000/svg" xmlns:xlink="http://www.w3.org/1999/xlink" version="1.1" viewBox="0 0 1293.7 1293.7">
  <!-- Generator: Adobe Illustrator 30.3.0, SVG Export Plug-In . SVG Version: 2.1.3 Build 182)  -->
  <defs>
    <style>
      .st0 {
        fill: #8fc39f;
      }

      .st1 {
        fill: #8fc39d;
      }

      .st2 {
        fill: none;
        stroke: #e2efe1;
        stroke-miterlimit: 10;
        stroke-width: 10px;
      }

      .st3 {
        fill: #8dc29d;
      }

      .st4 {
        fill: url(#linear-gradient);
      }

      .st5 {
        fill: #8fc5a0;
      }

      .st6, .st7 {
        fill: #63a47c;
      }

      .st8, .st7 {
        isolation: isolate;
      }

      .st9 {
        fill: #fff;
      }

      .st10 {
        fill: #225b47;
      }

      .st11 {
        fill: #61a27b;
      }

      .st12 {
        fill: #e2efe1;
      }

      .st13 {
        fill: #dcefd9;
      }

      .st14 {
        fill: #dceddb;
      }

      .st15 {
        fill: #c5e5c9;
      }

      .st7 {
        mix-blend-mode: multiply;
      }
    </style>
    <linearGradient id="linear-gradient" x1="686.7" y1="420.2" x2="912.3" y2="-26.3" gradientTransform="translate(0 240.2)" gradientUnits="userSpaceOnUse">
      <stop offset="0" stop-color="#8dc29d"/>
      <stop offset=".2" stop-color="#91c4a0"/>
      <stop offset=".4" stop-color="#9dcaaa"/>
      <stop offset=".7" stop-color="#b1d5ba"/>
      <stop offset=".9" stop-color="#cee4d1"/>
      <stop offset="1" stop-color="#e2efe1"/>
    </linearGradient>
  </defs>
  <g class="st8">
    <g id="Layer_11">
      <g>
        <g id="_86GocS">
          <path class="st10" d="M851.8,1248c-136.7,13.2-270.9,13.1-405.9.4-31.5-3-59.1-8.5-89.3-14.8-109.9-23.2-201.1-72.7-254.1-174.5-42-80.6-56.8-182.7-62.4-274.4-8-130.7-7.2-301.6,20.1-427.8C97.7,181.8,191.9,92.4,367.3,57.7c114.6-22.6,256.6-24.6,375-19.8,110.6,4.4,236.7,17.5,332,73.2,80.6,47,125.7,120.8,150.4,209.8,14.6,52.5,22.4,104.2,26.9,159,8.2,102.9,8.2,204.1,2,307.3-3.2,53.4-9.4,103-20.9,154.4-24.8,111.5-75.9,202.2-180.7,253.2-38.4,18.6-77.3,31.3-119.1,39.6-27.1,5.4-51.2,10.6-81,13.5h-.1Z"/>
        </g>
        <ellipse class="st12" cx="422.8" cy="619.5" rx="177.9" ry="182.1"/>
        <ellipse class="st4" cx="802.7" cy="430.8" rx="191" ry="193.4"/>
        <ellipse class="st3" cx="851.7" cy="800.3" rx="201.7" ry="180.8"/>
        <ellipse class="st15" cx="617.1" cy="891.5" rx="155.6" ry="152.7"/>
        <circle class="st12" cx="311.4" cy="390" r="19.5"/>
        <circle class="st3" cx="521.7" cy="314.3" r="18.4"/>
        <circle class="st6" cx="236.9" cy="802.3" r="16.4"/>
        <circle class="st12" cx="334.2" cy="874.6" r="16.4"/>
        <circle class="st13" cx="801" cy="1040.1" r="29.4"/>
        <circle class="st12" cx="967.8" cy="1011.8" r="13.3"/>
        <circle class="st14" cx="1045.7" cy="577" r="27.4"/>
        <circle class="st15" cx="999.5" cy="265.5" r="15.7"/>
        <g>
          <ellipse class="st2" cx="641.3" cy="627.2" rx="189.2" ry="208.3"/>
          <g>
            <path class="st9" d="M522.3,773.9c-.9.7-1.8,1.3-2.6,2h-.1c.9-.8,1.9-1.4,2.8-2h0Z"/>
            <path class="st9" d="M822.9,626.9c-5.7.6-11.5,1-17.4,1.1,5.7-1.2,11.5-2.2,17.4-2.9v1.8h0Z"/>
            <path class="st10" d="M805.5,628c-69,14.4-124.4,60.6-146,120.4-13.5-3.8-27.8-5.8-42.6-5.8-33.4,0-64.3,10.3-89.6,27.9,44.4-33.1,73.2-86.7,73.2-147.2s-30.1-116.5-76.2-149.4c24.4-22.8,54.4-38.6,87.3-44.6v5.4c0,106.8,85.5,193.4,191,193.4s2.1,0,3.1,0h-.2Z"/>
            <path class="st0" d="M822.8,625.1c-5.9.7-11.7,1.7-17.4,2.9h-3.1c-105.5,0-191-86.6-191-193.4s0-3.6,0-5.4c9.7-1.8,19.7-2.7,29.9-2.7,99.7,0,180.6,88.7,181.5,198.5h0Z"/>
            <path class="st1" d="M600.3,623.3c0,60.5-28.8,114.1-73.2,147.2-1.6,1.2-3.2,2.3-4.8,3.5-.9.7-1.8,1.3-2.8,1.9-36.7-36.7-59.8-89.7-59.8-148.8s25-116.4,64.4-153.2c46.1,32.9,76.2,87.5,76.2,149.4h0Z"/>
            <path class="st5" d="M736.6,797.8c-25,17.1-54.1,27.6-85.3,29.5-3.3.2-6.6.3-10,.3-46.8,0-89.4-19.5-121.6-51.6.9-.7,1.8-1.4,2.6-2,1.6-1.1,3.2-2.3,4.8-3.5,25.3-17.6,56.3-27.9,89.6-27.9s29.1,2,42.6,5.8c30.6,8.5,57.4,26.1,77.2,49.4h0Z"/>
            <path class="st7" d="M522.3,773.9c-.9.7-1.8,1.3-2.6,2h-.1c.9-.8,1.9-1.4,2.8-2h0Z"/>
            <path class="st11" d="M822.9,626.9v.2c0,72.2-34.5,135.4-86.3,170.7-19.8-23.4-46.6-40.9-77.2-49.4,21.6-59.8,77-106,146-120.4,5.9,0,11.7-.5,17.4-1.1h0Z"/>
            <path class="st7" d="M822.9,626.9c-5.7.6-11.5,1-17.4,1.1,5.7-1.2,11.5-2.2,17.4-2.9v1.8h0Z"/>
          </g>
        </g>
      </g>
    </g>
  </g>
</svg>